<svg width="113" height="32" viewBox="0 0 113 32" fill="none" xmlns="http://www.w3.org/2000/svg">
<g clip-path="url(#clip0_267_5413)">
<mask id="mask0_267_5413" style="mask-type:luminance" maskUnits="userSpaceOnUse" x="0" y="0" width="32" height="32">
<path d="M32 0H0V32H32V0Z" fill="white"/>
</mask>
<g mask="url(#mask0_267_5413)">
<path fill-rule="evenodd" clip-rule="evenodd" d="M3 16C10.1797 16 16 10.1797 16 3C16 1.96741 15.8799 0.963013 15.6523 0H12C5.37256 0 0 5.37256 0 12V15.6521C0.962891 15.8796 1.96729 16 3 16ZM14.8472 32H12C5.37256 32 0 26.6274 0 20V17.153C0.651855 17.0522 1.31982 17 2 17C9.17969 17 15 22.8203 15 30C15 30.6802 14.9478 31.348 14.8472 32ZM32 17.153V20C32 26.6274 26.6274 32 20 32H17.1528C17.0522 31.348 17 30.6802 17 30C17 22.8203 22.8203 17 30 17C30.6802 17 31.3481 17.0522 32 17.153ZM17.3477 0H20C26.6274 0 32 5.37256 32 12V15.847C31.3481 15.9478 30.6802 16 30 16C22.8203 16 17 10.1797 17 3C17 1.96741 17.1201 0.963013 17.3477 0Z" fill="#D2F400"/>
<path d="M16.0002 14L16.3317 15.3117L17.5639 14.753L16.745 15.83L17.9501 16.445L16.5975 16.4763L16.868 17.8019L16.0002 16.7639L15.1324 17.8019L15.4029 16.4763L14.0503 16.445L15.2554 15.83L14.4365 14.753L15.6687 15.3117L16.0002 14Z" fill="#D2F400"/>
</g>
<path d="M40.9039 22.9999V20.8703H44.0543C44.8522 20.8703 45.5503 20.706 46.1487 20.3775C46.7471 20.0372 47.2106 19.562 47.5391 18.9519C47.8794 18.3418 48.0495 17.6202 48.0495 16.7871C48.0495 15.9775 47.8794 15.2735 47.5391 14.6751C47.1988 14.065 46.7295 13.5956 46.1311 13.2671C45.5327 12.9268 44.8404 12.7567 44.0543 12.7567H40.8511V10.6271H44.0895C45.0047 10.6271 45.8495 10.7796 46.6239 11.0847C47.41 11.3898 48.0906 11.8239 48.6655 12.3871C49.2522 12.9386 49.7039 13.5898 50.0207 14.3407C50.3492 15.0916 50.5135 15.913 50.5135 16.8047C50.5135 17.6964 50.3492 18.5236 50.0207 19.2863C49.7039 20.0372 49.258 20.6943 48.6831 21.2575C48.1082 21.809 47.4276 22.2372 46.6415 22.5423C45.8671 22.8474 45.0282 22.9999 44.1247 22.9999H40.9039ZM39.2671 22.9999V10.6271H41.6607V22.9999H39.2671ZM52.1691 22.9999V14.4991H54.4923V22.9999H52.1691ZM53.3307 13.1263C52.9553 13.1263 52.6443 13.0031 52.3979 12.7567C52.1515 12.4986 52.0283 12.1818 52.0283 11.8063C52.0283 11.4426 52.1515 11.1316 52.3979 10.8735C52.6443 10.6154 52.9553 10.4863 53.3307 10.4863C53.7179 10.4863 54.0289 10.6154 54.2635 10.8735C54.5099 11.1316 54.6331 11.4426 54.6331 11.8063C54.6331 12.1818 54.5099 12.4986 54.2635 12.7567C54.0289 13.0031 53.7179 13.1263 53.3307 13.1263ZM60.09 26.7663C59.1865 26.7663 58.3886 26.602 57.6964 26.2735C57.0041 25.9567 56.4526 25.505 56.042 24.9183L57.5028 23.4575C57.8313 23.8447 58.195 24.138 58.594 24.3375C59.0046 24.5487 59.4974 24.6543 60.0724 24.6543C60.7881 24.6543 61.3513 24.4724 61.762 24.1087C62.1844 23.745 62.3956 23.2404 62.3956 22.5951V20.4655L62.7828 18.5999L62.4132 16.7343V14.4991H64.7012V22.5599C64.7012 23.4047 64.5017 24.138 64.1028 24.7599C63.7156 25.3935 63.1758 25.8863 62.4836 26.2383C61.7913 26.5903 60.9934 26.7663 60.09 26.7663ZM59.9844 22.7711C59.2217 22.7711 58.5353 22.5892 57.9252 22.2255C57.315 21.85 56.834 21.3396 56.482 20.6943C56.1417 20.049 55.9716 19.3274 55.9716 18.5295C55.9716 17.7316 56.1417 17.0159 56.482 16.3823C56.834 15.7487 57.315 15.25 57.9252 14.8863C58.5353 14.5108 59.2217 14.3231 59.9844 14.3231C60.618 14.3231 61.1753 14.4463 61.6564 14.6927C62.1492 14.9391 62.5364 15.2794 62.818 15.7135C63.0996 16.1359 63.2521 16.6346 63.2756 17.2095V19.8847C63.2521 20.4479 63.0937 20.9524 62.8004 21.3983C62.5188 21.8324 62.1316 22.1727 61.6388 22.4191C61.1577 22.6538 60.6062 22.7711 59.9844 22.7711ZM60.442 20.6767C60.8644 20.6767 61.2281 20.5887 61.5332 20.4127C61.85 20.225 62.0964 19.9727 62.2724 19.6559C62.4484 19.3274 62.5364 18.9578 62.5364 18.5471C62.5364 18.1247 62.4484 17.7551 62.2724 17.4383C62.0964 17.1215 61.85 16.8751 61.5332 16.6991C61.2281 16.5114 60.8644 16.4175 60.442 16.4175C60.0196 16.4175 59.65 16.5114 59.3332 16.6991C59.0164 16.8751 58.77 17.1274 58.594 17.4559C58.418 17.7727 58.33 18.1364 58.33 18.5471C58.33 18.946 58.418 19.3098 58.594 19.6383C58.77 19.9551 59.0164 20.2074 59.3332 20.3951C59.65 20.5828 60.0196 20.6767 60.442 20.6767ZM66.7269 22.9999V14.4991H69.0501V22.9999H66.7269ZM67.8885 13.1263C67.5131 13.1263 67.2021 13.0031 66.9557 12.7567C66.7093 12.4986 66.5861 12.1818 66.5861 11.8063C66.5861 11.4426 66.7093 11.1316 66.9557 10.8735C67.2021 10.6154 67.5131 10.4863 67.8885 10.4863C68.2757 10.4863 68.5867 10.6154 68.8213 10.8735C69.0677 11.1316 69.1909 11.4426 69.1909 11.8063C69.1909 12.1818 69.0677 12.4986 68.8213 12.7567C68.5867 13.0031 68.2757 13.1263 67.8885 13.1263ZM71.0926 22.9999V14.4991H73.4158V22.9999H71.0926ZM72.2542 13.1263C71.8787 13.1263 71.5678 13.0031 71.3214 12.7567C71.075 12.4986 70.9518 12.1818 70.9518 11.8063C70.9518 11.4426 71.075 11.1316 71.3214 10.8735C71.5678 10.6154 71.8787 10.4863 72.2542 10.4863C72.6414 10.4863 72.9523 10.6154 73.187 10.8735C73.4334 11.1316 73.5566 11.4426 73.5566 11.8063C73.5566 12.1818 73.4334 12.4986 73.187 12.7567C72.9523 13.0031 72.6414 13.1263 72.2542 13.1263ZM75.7046 22.9999V10.6271H78.0982V22.9999H75.7046ZM77.4646 17.9311V15.8015H83.695V17.9311H77.4646ZM77.4646 12.7391V10.6271H83.9942V12.7391H77.4646ZM85.6332 22.9999V10.2751H87.9388V22.9999H85.6332ZM93.9768 23.1759C93.1203 23.1759 92.3459 22.9823 91.6536 22.5951C90.9731 22.1962 90.4275 21.6623 90.0168 20.9935C89.6179 20.313 89.4184 19.5562 89.4184 18.7231C89.4184 17.89 89.6179 17.145 90.0168 16.4879C90.4158 15.8191 90.9614 15.2911 91.6536 14.9039C92.3459 14.505 93.1144 14.3055 93.9592 14.3055C94.8275 14.3055 95.6019 14.505 96.2824 14.9039C96.9747 15.2911 97.5203 15.8191 97.9192 16.4879C98.3182 17.145 98.5176 17.89 98.5176 18.7231C98.5176 19.5562 98.3182 20.313 97.9192 20.9935C97.5203 21.6623 96.9747 22.1962 96.2824 22.5951C95.6019 22.9823 94.8334 23.1759 93.9768 23.1759ZM93.9592 21.0287C94.3934 21.0287 94.7747 20.9348 95.1032 20.7471C95.4435 20.5476 95.7016 20.2778 95.8776 19.9375C96.0654 19.5855 96.1592 19.1866 96.1592 18.7407C96.1592 18.2948 96.0654 17.9018 95.8776 17.5615C95.6899 17.2212 95.4318 16.9572 95.1032 16.7695C94.7747 16.57 94.3934 16.4703 93.9592 16.4703C93.5368 16.4703 93.1614 16.57 92.8328 16.7695C92.5043 16.9572 92.2462 17.2212 92.0584 17.5615C91.8707 17.9018 91.7768 18.2948 91.7768 18.7407C91.7768 19.1866 91.8707 19.5855 92.0584 19.9375C92.2462 20.2778 92.5043 20.5476 92.8328 20.7471C93.1614 20.9348 93.5368 21.0287 93.9592 21.0287ZM102.083 22.9999L98.8977 14.4991H101.221L103.298 20.6767L102.594 20.6943L104.723 14.4991H106.395L108.525 20.6943L107.821 20.6767L109.898 14.4991H112.221L109.053 22.9999H107.381L105.234 17.1215H105.885L103.738 22.9999H102.083Z" fill="#1B222C"/>
</g>
<defs>
<clipPath id="clip0_267_5413">
<rect width="113" height="32" fill="white"/>
</clipPath>
</defs>
</svg>
